HIERARCHY
ROOT Hips
{
    OFFSET 0.000000 0.000000 0.000000
    CHANNELS 6 Xposition Yposition Zposition Zrotation Xrotation Yrotation
    JOINT Spine
    {
        OFFSET -0.000000 7.897928 0.000000
        CHANNELS 3 Zrotation Xrotation Yrotation
        JOINT Spine1
        {
            OFFSET -0.000000 22.881742 0.000000
            CHANNELS 3 Zrotation Xrotation Yrotation
            JOINT Neck
            {
                OFFSET -0.000000 22.787771 2.071616
                CHANNELS 3 Zrotation Xrotation Yrotation
                JOINT Head
                {
                    OFFSET -0.000000 13.484266 -1.926324
                    CHANNELS 3 Zrotation Xrotation Yrotation
                    End Site
                    {
                        OFFSET -0.000000 24.079046 0.000000
                    }
                }
            }
            JOINT LeftShoulder
            {
                OFFSET 3.854963 21.096247 -0.110468
                CHANNELS 3 Zrotation Xrotation Yrotation
                JOINT LeftArm
                {
                    OFFSET 10.572188 0.000000 0.000000
                    CHANNELS 3 Zrotation Xrotation Yrotation
                    JOINT LeftForeArm
                    {
                        OFFSET 34.932854 0.000000 0.000000
                        CHANNELS 3 Zrotation Xrotation Yrotation
                        JOINT LeftHand
                        {
                            OFFSET 23.279285 0.000000 0.000000
                            CHANNELS 3 Zrotation Xrotation Yrotation
                            End Site
                            {
                                OFFSET 14.447429 0.000000 0.000000
                            }
                        }
                    }
                }
            }
            JOINT RightShoulder
            {
                OFFSET -3.825334 21.096247 -0.110468
                CHANNELS 3 Zrotation Xrotation Yrotation
                JOINT RightArm
                {
                    OFFSET -10.572188 0.000000 0.000000
                    CHANNELS 3 Zrotation Xrotation Yrotation
                    JOINT RightForeArm
                    {
                        OFFSET -34.932854 0.000000 0.000000
                        CHANNELS 3 Zrotation Xrotation Yrotation
                        JOINT RightHand
                        {
                            OFFSET -23.279285 0.000000 0.000000
                            CHANNELS 3 Zrotation Xrotation Yrotation
                            End Site
                            {
                                OFFSET -14.447429 0.000000 0.000000
                            }
                        }
                    }
                }
            }
        }
    }
    JOINT LeftUpLeg
    {
        OFFSET 9.631618 0.000000 0.000000
        CHANNELS 3 Zrotation Xrotation Yrotation
        JOINT LeftLeg
        {
            OFFSET -0.000000 -35.385456 0.000000
            CHANNELS 3 Zrotation Xrotation Yrotation
            JOINT LeftFoot
            {
                OFFSET -0.000000 -43.284000 0.000000
                CHANNELS 3 Zrotation Xrotation Yrotation
                JOINT LeftToeBase
                {
                    OFFSET -0.000000 -6.260552 14.447429
                    CHANNELS 3 Zrotation Xrotation Yrotation
                    End Site
                    {
                        OFFSET -0.000000 0.000000 3.852648
                    }
                }
            }
        }
    }
    JOINT RightUpLeg
    {
        OFFSET -9.631618 0.000000 0.000000
        CHANNELS 3 Zrotation Xrotation Yrotation
        JOINT RightLeg
        {
            OFFSET -0.000000 -35.385456 0.000000
            CHANNELS 3 Zrotation Xrotation Yrotation
            JOINT RightFoot
            {
                OFFSET -0.000000 -43.284000 0.000000
                CHANNELS 3 Zrotation Xrotation Yrotation
                JOINT RightToeBase
                {
                    OFFSET -0.000000 -6.260552 14.447429
                    CHANNELS 3 Zrotation Xrotation Yrotation
                    End Site
                    {
                        OFFSET -0.000000 0.000000 3.852648
                    }
                }
            }
        }
    }
}
MOTION
Frames:    4
Frame Time:    0.008333
21.542265    105.897095    48.979023    -4.928414    2.437388    83.478233    1.176274    -2.132786    -0.495771    -4.520729    2.433453    -0.421689    0.201476    5.609174    -11.926772    9.809783    -4.065520    -10.713759    0.849402    11.818081    7.275809    -54.307556    58.115063    -7.593668    -3.931872    -18.330875    -55.738026    19.510706    -18.343376    11.982833    2.236586    10.516648    4.518539    48.274334    59.838409    17.601587    11.056357    -24.659224    38.869305    -4.326088    -28.232534    2.037627    5.152017    -11.724293    6.485189    -6.844834    16.012865    2.996030    -17.783802    18.715601    22.182526    0.000000    0.000000    0.000000    -6.686496    -14.666440    3.197698    6.425700    18.970270    -6.712962    11.864816    26.754318    -12.447762    0.000000    0.000000    0.000000    
21.315561    106.203293    48.935749    -4.879583    2.499093    83.289017    1.134465    -2.144803    -0.388029    -4.449186    3.129814    -0.287642    -0.298297    5.262885    -12.071405    10.391994    -4.237647    -10.697072    0.812713    11.410936    7.240924    -54.020683    58.276440    -7.920743    -3.852760    -18.434519    -55.112007    19.340265    -18.395180    12.007638    1.860881    10.274935    4.625269    48.182671    59.696178    18.002300    11.049308    -25.160500    38.565487    -4.261825    -28.682892    1.937740    5.246101    -12.301835    6.984644    -6.908649    17.162386    2.282342    -16.549328    18.144068    21.049665    0.000000    0.000000    0.000000    -6.814704    -15.508179    2.945884    6.642207    20.478512    -6.850038    10.135164    26.176708    -10.968267    0.000000    0.000000    0.000000    
21.132042    106.409714    48.923512    -4.766279    2.428650    83.210602    1.386879    -2.075260    -0.336960    -4.834401    3.705626    -0.205772    0.530579    4.982738    -11.991327    9.337682    -4.734187    -10.846125    1.109162    11.265891    7.257746    -53.671101    58.240643    -8.459083    -3.666176    -18.389580    -54.470837    19.143478    -18.222530    12.196657    1.971368    10.207348    4.694567    47.614109    59.764084    18.701483    11.073574    -25.543491    38.140282    -4.987467    -29.013205    1.448891    5.464987    -12.747693    7.369689    -6.902423    18.243902    0.878403    -16.159924    17.332014    20.593473    0.000000    0.000000    0.000000    -6.833188    -16.217455    2.515790    6.798614    22.030382    -6.655170    8.816712    25.437971    -9.896486    0.000000    0.000000    0.000000    
20.966789    106.527802    48.909100    -4.652715    2.364569    83.118301    1.520793    -1.843898    -0.309493    -4.896718    3.908154    -0.166735    0.166758    4.591095    -12.078276    9.668785    -4.360923    -10.870469    1.027223    11.204311    7.300377    -53.273037    58.280251    -8.891922    -3.493579    -18.538124    -53.586742    18.564249    -18.348600    11.981918    1.826314    10.259306    4.817518    47.391148    59.667122    19.213442    10.458775    -25.787073    37.057278    -3.631016    -28.964762    1.981637    5.629715    -13.176044    7.740111    -6.827498    19.259668    -0.430057    -15.951705    16.737036    20.071205    0.000000    0.000000    0.000000    -6.908923    -16.884642    2.259919    7.145202    23.505857    -6.476065    7.386442    24.569115    -9.030722    0.000000    0.000000    0.000000    
